<?xml version="1.0" standalone="no"?>
<!DOCTYPE svg PUBLIC "-//W3C//DTD SVG 20010904//EN"
 "http://www.w3.org/TR/2001/REC-SVG-20010904/DTD/svg10.dtd">
<svg version="1.0" xmlns="http://www.w3.org/2000/svg"
 width="1024.000000pt" height="1024.000000pt" viewBox="0 0 1024.000000 1024.000000"
 preserveAspectRatio="xMidYMid meet">
<metadata>
Created by potrace 1.16, written by Peter Selinger 2001-2019
</metadata>
<g transform="translate(0.000000,1024.000000) scale(0.100000,-0.100000)"
fill="#000000" stroke="none">
<path d="M3870 7172 c-50 -24 -71 -85 -50 -144 26 -72 52 -83 196 -83 l124 0
39 -90 c42 -95 101 -246 287 -725 157 -404 163 -418 199 -455 56 -55 66 -56
695 -53 l575 3 45 24 c24 12 51 33 60 45 34 48 440 871 440 892 0 39 -21 72
-55 89 -29 13 -145 15 -968 15 l-934 0 -78 203 c-89 233 -103 259 -149 281
-52 24 -376 23 -426 -2z m1408 -1020 l2 -282 -217 2 -217 3 -37 95 c-21 52
-67 172 -102 265 -36 94 -68 178 -72 188 -7 16 11 17 316 15 l324 -3 3 -283z
m842 281 c-1 -5 -63 -132 -138 -283 l-137 -275 -157 -3 -158 -3 0 286 0 285
295 0 c162 0 295 -3 295 -7z"/>
<path d="M5440 7161 c-576 -5 -750 -9 -767 -19 -32 -18 -43 -44 -43 -103 0
-46 4 -55 36 -85 l35 -34 851 0 c936 0 901 -2 933 61 32 60 10 144 -44 169
-35 17 -127 18 -1001 11z"/>
<path d="M2038 7145 c-61 -34 -58 19 -58 -1070 0 -1090 -2 -1048 59 -1079 24
-13 66 -16 208 -16 160 0 181 2 211 20 18 11 37 32 42 46 6 15 10 221 10 512
l1 487 44 -90 c25 -49 133 -270 241 -490 194 -399 225 -451 284 -475 18 -7 91
-10 213 -8 170 3 188 5 214 24 15 11 34 32 40 45 10 19 12 244 10 1032 l-2
1009 -38 34 -38 35 -190 -3 -191 -3 -29 -33 -29 -32 -1 -518 0 -517 -35 70
c-19 39 -135 275 -258 525 -137 279 -234 465 -250 480 -27 25 -30 25 -229 27
-165 2 -207 0 -229 -12z"/>
<path d="M6831 7147 c-54 -28 -60 -49 -61 -227 -2 -243 -4 -228 34 -266 l34
-34 206 0 206 0 0 -774 c0 -479 4 -784 10 -800 5 -14 24 -35 42 -46 30 -18 51
-20 231 -20 157 0 204 3 227 15 62 32 60 -2 60 850 l0 775 185 0 c288 0 285
-3 285 277 0 206 -3 219 -60 248 -25 13 -124 15 -702 15 -514 0 -679 -3 -697
-13z"/>
<path d="M3837 6055 c-47 -47 -39 -132 16 -165 28 -18 51 -20 195 -20 182 0
210 7 238 61 20 40 12 89 -23 123 l-26 26 -187 0 c-187 0 -187 0 -213 -25z"/>
<path d="M6429 6051 c-43 -43 -41 -101 5 -147 l34 -34 169 0 c142 0 172 3 193
17 40 27 49 45 50 91 0 35 -6 49 -29 73 l-29 29 -182 0 -182 0 -29 -29z"/>
<path d="M3918 5457 c-50 -47 -49 -118 3 -161 l31 -26 213 0 213 0 31 26 c36
30 49 81 31 125 -24 57 -33 59 -276 59 -218 0 -221 0 -246 -23z"/>
<path d="M6059 5451 c-33 -33 -39 -83 -15 -130 25 -47 49 -51 289 -51 201 0
225 2 253 19 36 22 59 78 50 117 -4 14 -19 37 -33 50 l-26 24 -244 0 -245 0
-29 -29z"/>
<path d="M4817 5427 c-93 -29 -151 -112 -152 -217 0 -53 5 -73 27 -111 77
-131 256 -147 358 -32 65 74 77 160 36 249 -47 101 -156 146 -269 111z"/>
<path d="M5485 5424 c-86 -32 -139 -113 -140 -215 0 -89 37 -151 114 -191 199
-104 412 103 311 302 -51 99 -175 144 -285 104z"/>
<path d="M7219 4780 c-343 -6 -339 -5 -358 -79 -6 -21 -9 -350 -8 -768 l2
-732 29 -30 30 -31 193 0 193 0 32 29 33 29 -3 251 -4 251 205 0 c170 0 216 3
281 20 106 27 169 63 249 141 138 137 187 319 137 513 -45 177 -167 311 -339
374 -48 17 -100 25 -200 32 -75 5 -143 8 -151 7 -8 -1 -153 -4 -321 -7z m466
-460 c50 -50 49 -124 -1 -171 -24 -23 -33 -24 -170 -27 l-144 -3 -2 68 c-1 37
-2 90 -2 116 l-1 48 147 -3 c143 -3 148 -4 173 -28z"/>
<path d="M2495 4769 c-219 -43 -361 -140 -440 -303 -88 -179 -63 -384 63 -512
87 -87 216 -134 497 -178 332 -53 365 -63 365 -111 0 -33 -40 -62 -108 -76
-87 -18 -277 2 -517 56 -222 50 -234 51 -275 30 -51 -26 -60 -59 -60 -211 l0
-136 33 -33 c23 -23 56 -39 117 -58 259 -78 409 -101 629 -94 180 5 241 17
350 67 93 44 156 94 207 166 57 80 86 159 92 254 11 187 -74 347 -226 424 -74
37 -169 61 -429 106 -128 22 -249 46 -268 54 -44 19 -48 55 -9 85 84 66 274
58 613 -26 125 -30 150 -34 182 -24 61 18 74 48 74 176 0 103 -2 113 -28 158
-48 82 -130 121 -346 168 -110 24 -430 35 -516 18z"/>
<path d="M3682 4764 c-53 -37 -52 -15 -52 -804 0 -791 -1 -776 52 -809 28 -18
365 -19 398 -1 52 28 55 45 58 327 l4 263 45 20 c92 41 228 63 331 53 l62 -6
0 -287 c0 -179 4 -299 11 -318 20 -57 39 -62 241 -62 201 0 214 3 243 60 22
42 23 1463 1 1515 -25 58 -52 65 -252 65 l-176 0 -34 -34 -34 -34 0 -234 0
-233 -147 -1 c-121 0 -161 -4 -218 -22 -38 -11 -71 -19 -73 -17 -3 2 -6 113
-8 247 -3 146 -9 254 -16 271 -20 50 -49 57 -240 57 -141 0 -178 -3 -196 -16z"/>
<path d="M5805 4765 c-250 -55 -450 -248 -522 -505 -15 -54 -18 -103 -18 -300
0 -215 2 -242 23 -315 32 -110 91 -213 172 -298 79 -84 163 -137 275 -174 72
-24 95 -27 220 -27 127 0 148 3 220 28 234 80 395 253 460 496 23 87 32 377
15 492 -14 102 -63 234 -113 309 -41 63 -132 155 -191 195 -142 97 -365 138
-541 99z m263 -517 c25 -17 49 -45 63 -75 22 -43 24 -64 27 -202 4 -171 -6
-216 -56 -267 -57 -57 -153 -72 -235 -36 -92 41 -124 142 -111 352 7 122 21
165 66 207 63 60 173 69 246 21z"/>
</g>
</svg>
